<svg xmlns="http://www.w3.org/2000/svg" width="120" height="120" viewBox="0 0 120 120">
  <defs>
    <linearGradient id="g" x1="0%" y1="0%" x2="100%" y2="100%">
      <stop offset="0%" style="stop-color:#34d399"/>
      <stop offset="100%" style="stop-color:#0d9488"/>
    </linearGradient>
  </defs>
  <rect width="120" height="120" rx="28" fill="url(#g)"/>
  <g transform="translate(26, 26)" stroke="white" stroke-width="3" fill="none" stroke-linecap="round" stroke-linejoin="round">
    <rect x="12" y="12" width="44" height="44" rx="6"/>
    <rect x="22" y="22" width="24" height="24" rx="3"/>
    <line x1="34" y1="2" x2="34" y2="12"/>
    <line x1="34" y1="56" x2="34" y2="66"/>
    <line x1="2" y1="34" x2="12" y2="34"/>
    <line x1="56" y1="34" x2="66" y2="34"/>
    <line x1="22" y1="2" x2="22" y2="12"/>
    <line x1="46" y1="2" x2="46" y2="12"/>
    <line x1="22" y1="56" x2="22" y2="66"/>
    <line x1="46" y1="56" x2="46" y2="66"/>
    <line x1="2" y1="22" x2="12" y2="22"/>
    <line x1="2" y1="46" x2="12" y2="46"/>
    <line x1="56" y1="22" x2="66" y2="22"/>
    <line x1="56" y1="46" x2="66" y2="46"/>
  </g>
</svg>
